PathFileType	4	(X/Y/Z)	C:/Users/beibeiliu/ov580/test_trc\sequence.2_training_dense_right.trc
DataRate	CameraRate	NumFrames	NumMarkers	Units	OrigDataRate	OrigDataStartFrame	OrigNumFrames
120	120	10	19	mm	120	29	84
Frame#	Time	ThumbCMC			ThumbMCP			ThumbIP			ThumbTip			IndexMCP			IndexPIP			IndexTip			MiddleMCP			MiddlePIP			MiddleTip			RingMCP			RingPIP			RingTip			PinkyMCP			PinkyPIP			PinkyTip			BackHand1			BackHand2			BackHand3	
		X0	Y0	Z0	X1	Y1	Z1	X2	Y2	Z2	X3	Y3	Z3	X4	Y4	Z4	X5	Y5	Z5	X6	Y6	Z6	X7	Y7	Z7	X8	Y8	Z8	X9	Y9	Z9	X10	Y10	Z10	X11	Y11	Z11	X12	Y12	Z12	X13	Y13	Z13	X14	Y14	Z14	X15	Y15	Z15	X16	Y16	Z16	X17	Y17	Z17	X18	Y18	Z18	
28	0.233333	98.5273	126.436	68.894	66.7625	122.481	74.5764	49.2135	110.164	76.678	35.211	88.8758	81.1979	55.314	91.6624	30.9209	34.9321	86.7517	46.262	46.865	100.143	74.5653	57.8063	73.0614	40.41	38.681	72.4048	61.5241	55.4708	88.265	86.7407	65.2884	60.0828	53.6842	50.9484	65.0846	75.519	63.2755	81.6605	92.6758	78.67	51.6026	65.0939	63.6439	59.939	82.797	71.5223	78.3875	96.3337	115.5	78.6751	49.9934	138.243	89.6682	63.4746	114.435	107.755	46.59	
29	0.241667	106.289	128.365	71.9949	76.8828	138.158	80.4119	49.9737	134.68	83.0928	34.1127	113.786	88.4213	47.7308	106.033	40.6751	28.561	110.019	55.3313	41.2568	118.818	80.8138	43.8153	89.7523	50.1829	29.7015	96.4617	74.8386	52.3667	110.682	94.0799	51.4168	76.0675	63.7308	39.9442	89.6705	86.8563	60.0486	102.441	100.758	61.0825	65.8002	74.0088	50.8384	79.2711	94.4594	65.1079	93.3245	106.129	100.29	76.6523	55.226	127.763	79.5273	65.8457	113.225	106.603	52.3249	
30	0.25	110.436	127.699	70.0482	86.9349	147.213	75.6971	64.7029	150.996	79.0639	43.2479	142.047	85.1958	53.6439	126.303	37.4201	32.7308	133.11	54.2756	45.2063	139.526	78.2534	41.544	110.209	50.4998	28.7471	123.843	74.2039	53.8652	125.582	93.2431	40.1029	96.7258	65.1714	36.5511	114.713	85.6628	62.3675	114.996	101.649	47.3684	85.6556	75.8138	44.1477	103.058	92.1748	62.5409	110.41	103.424	88.4414	77.4942	59.962	112.427	75.0241	69.4631	110.374	99.7656	53.6896	
31	0.258333	115.465	119.249	66.2992	96.3837	147.277	65.3337	77.8982	157.863	65.3269	51.4745	158.027	71.8269	61.6957	127.241	29.6813	44.35	149.028	41.1297	57.7911	150.308	67.3628	43.2534	122.362	41.6658	35.2146	141.042	62.662	63.5062	139.526	82.7633	39.2943	114.124	58.1359	40.7377	131.646	78.2994	63.9515	130.27	89.2556	39.8319	99.3799	72.1179	42.1539	119.71	84.2058	65.9579	122.328	92.9192	78.9927	80.3727	58.7924	103.592	69.6469	70.6948	103.869	90.0714	53.8868	
32	0.266667	121.595	111.819	61.5927	106.956	143.287	51.9194	90.0247	159.115	45.5185	64.0494	163.055	50.0272	72.636	124.616	16.2301	62.2948	154.023	22.3642	73.1368	155.277	46.3741	54.4866	124.023	27.6484	50.063	152.191	41.4244	69.1561	143.988	66.8416	44.0464	120.065	43.8041	47.661	143.12	57.6192	68.8384	134.581	76.2252	40.4581	109.375	58.4309	42.1467	132.04	70.5774	68.975	127.921	78.6425	72.5499	78.4375	57.1277	88.5882	68.4091	74.0152	98.7473	84.704	49.8859	
33	0.275	120.86	107.065	58.0725	116.51	135.289	43.8756	101.515	151.226	31.6276	74.8474	161.07	25.4842	82.7586	117.665	1.25926	73.8225	143.099	2.31429	82.1035	148.296	30.2841	60.6122	116.861	15.3064	58.5984	147.867	19.1312	76.2451	146.835	45.5098	47.4419	120.05	27.0954	51.9988	143.649	36.3643	68.09	140.208	57.3039	41.2161	112.426	42.6042	44.5813	136.07	46.9471	69.037	136.148	63.8158	72.8087	77.7124	52.8353	85.9658	71.1286	71.5205	104.307	81.0583	51.1187	
34	0.283333	120.136	103.587	55.7145	118.051	127.353	32.9033	105.632	136.237	20.1863	83.2703	147.346	4.85936	87.7044	99.3251	-0.330349	85.1323	128.035	-9.04688	91.9292	136.788	15.9766	71.8686	104.48	0.301356	66.8443	131.791	-0.377057	81.6414	136.444	30.3697	56.7887	105.775	14.3907	56.5785	130.84	15.1182	75.7469	135.323	39.388	46.2168	103.146	30.7329	47.3595	126.805	26.7494	67.8727	134.572	40.4347	73.4783	77.1463	56.1258	86.1095	73.5041	78.1273	103.697	76.8473	52.687	
35	0.291667	122.358	98.2865	60.3794	119.009	113.801	27.7966	111.152	120.504	9.09652	90.0321	122.248	-3.89449	98.8278	77.7044	-3.08328	89.5456	99.4684	-12.8108	99.36	118.019	8.48734	77.2823	81.0837	-1.61905	73.2449	108.745	-8.8423	81.9274	121.548	19.8359	60.5857	84.4465	12.92	65.5656	111.614	3.58067	75.6618	123.304	28.8899	51.2913	84.7319	23.9581	51.4003	102.203	13.2158	67.2934	120.473	25.5856	79.9081	67.2008	58.398	86.9151	71.7116	85.3855	104.584	68.674	61.6539	
36	0.3	123.05	88.0601	59.1733	120.089	98.0616	30.8171	111.985	95.1808	3.90801	95.3689	95.1597	-10.5854	102.146	52.6758	8.20508	99.1646	72.4292	-11.007	100.47	93.5725	8.68385	87.2269	55.4455	5.32027	79.9702	78.4542	-8.35135	90.8591	100.832	15.6514	68.3248	60.5272	16.9027	69.8903	85.8402	2.67062	80.3464	101.994	22.1041	54.4582	63.4106	31.9765	55.7403	81.5354	10.0694	69.3805	97.3167	14.0634	82.079	58.9107	65.9153	88.4051	65.7971	87.2233	108.653	62.343	73.0703	
37	0.308333	125.803	82.1768	66.0537	126.889	83.4582	32.2364	120.161	73.6799	6.28675	104.484	67.685	-8.74759	115.772	33.2342	21.889	108.393	46.2219	-1.01293	113.816	73.967	13.2964	97.2734	31.7976	17.1667	89.6165	52.8004	-1.49169	95.0696	78.3983	19.2345	79.1434	36.0925	25.1468	80.6376	59.5364	5.87367	88.7476	79.223	19.4881	63.1261	41.191	35.2212	66.2515	54.9002	13.3547	80.1368	75.4402	16.5661	87.7033	46.2669	76.4127	88.6315	58.6793	94.7956	114.071	51.9929	78.1589	
